<?xml version="1.0" standalone="no"?>
<svg xmlns="http://www.w3.org/2000/svg" viewBox="0 0 58.08 56.4" width="58.08" height="56.4"><rect fill="#0b0cac" width="58.08" height="56.4" x="0" y="0"></rect><path fill="white" fill-rule="nonzero" d="M4.24 32.40L0 32.40L6.88 0L11.24 0L18.16 32.40L13.88 32.40L12.40 24.24L5.80 24.24L4.24 32.40ZM9.08 6.40L6.40 21L11.80 21L9.08 6.40ZM34.08 32.40L21.44 32.40L21.44 0L34 0L34 3.36L25.96 3.36L25.96 14.08L32.48 14.08L32.48 17.28L25.96 17.28L25.96 29.16L34.08 29.16L34.08 32.40Z" transform="translate(12 12) scale(1)"></path></svg>